<?xml version="1.0" standalone="no"?><svg xmlns="http://www.w3.org/2000/svg" viewBox="0 0 1440 320"><path fill="#0099ff" fill-opacity="1" d="M0,96L30,122.7C60,149,120,203,180,208C240,213,300,171,360,154.7C420,139,480,149,540,170.7C600,192,660,224,720,234.7C780,245,840,235,900,208C960,181,1020,139,1080,133.3C1140,128,1200,160,1260,170.7C1320,181,1380,171,1410,165.3L1440,160L1440,320L1410,320C1380,320,1320,320,1260,320C1200,320,1140,320,1080,320C1020,320,960,320,900,320C840,320,780,320,720,320C660,320,600,320,540,320C480,320,420,320,360,320C300,320,240,320,180,320C120,320,60,320,30,320L0,320Z"></path></svg>